<?xml version="1.0" standalone="no"?>
<!DOCTYPE svg PUBLIC "-//W3C//DTD SVG 20010904//EN"
 "http://www.w3.org/TR/2001/REC-SVG-20010904/DTD/svg10.dtd">
<svg version="1.0" xmlns="http://www.w3.org/2000/svg"
 width="500.000000pt" height="500.000000pt" viewBox="0 0 500.000000 500.000000"
 preserveAspectRatio="xMidYMid meet">

<g transform="translate(0.000000,500.000000) scale(0.100000,-0.100000)"
fill="#000000" stroke="none">
<path d="M3385 2760 c-83 -40 -282 -96 -406 -114 -257 -37 -482 -30 -774 25
-231 44 -401 46 -549 6 -216 -59 -389 -194 -486 -380 l-33 -62 53 58 c164 181
438 282 715 262 50 -3 153 -15 230 -26 270 -39 564 -40 740 -4 186 39 368 113
516 212 95 63 93 70 -6 23z"/>
<path d="M2302 1599 c-190 -37 -274 -274 -151 -423 68 -82 217 -113 315 -65
49 23 110 86 130 135 19 44 18 152 -1 198 -47 112 -173 179 -293 155z m126
-90 c86 -42 124 -151 84 -241 -48 -110 -181 -142 -269 -65 -126 111 -55 322
111 326 16 1 49 -9 74 -20z"/>
<path d="M3355 1601 c-210 -35 -290 -310 -130 -449 51 -45 98 -62 174 -62 116
0 207 60 246 164 21 55 17 154 -8 203 -55 106 -167 163 -282 144z m141 -103
c87 -60 105 -187 38 -275 -30 -40 -100 -67 -154 -60 -185 25 -209 300 -31 358
40 13 111 1 147 -23z"/>
<path d="M1668 1590 c-16 -10 -18 -33 -18 -245 0 -230 0 -234 22 -246 31 -17
262 -7 309 13 53 23 79 62 79 117 0 53 -18 84 -62 107 l-30 16 31 32 c57 59
43 150 -29 186 -43 22 -274 37 -302 20z m260 -86 c15 -10 22 -25 22 -47 0 -61
-30 -77 -139 -77 l-81 0 0 70 0 70 88 0 c63 0 94 -4 110 -16z m26 -215 c32
-25 35 -70 6 -99 -17 -17 -33 -20 -125 -20 l-105 0 0 70 0 70 99 0 c84 0 102
-3 125 -21z"/>
<path d="M2686 1584 c-14 -14 -16 -47 -14 -246 3 -207 5 -232 21 -242 12 -8
22 -8 35 0 14 9 17 29 20 113 l3 101 124 0 125 0 0 -91 c0 -97 10 -129 39
-129 39 0 41 19 39 266 -3 235 -3 239 -24 242 -42 6 -54 -21 -54 -124 l0 -94
-125 0 -125 0 0 98 c0 97 -8 122 -36 122 -7 0 -20 -7 -28 -16z"/>
<path d="M3738 1589 c-16 -9 -18 -32 -18 -244 0 -221 1 -235 19 -245 26 -13
286 -13 312 0 10 6 19 19 19 28 0 36 -20 42 -147 42 l-123 0 0 205 c0 192 -1
205 -19 215 -23 12 -22 12 -43 -1z"/>
</g>
</svg>
