<svg version="1.1" id="Layer_1" xmlns="http://www.w3.org/2000/svg" xmlns:xlink="http://www.w3.org/1999/xlink" x="0px" y="0px"
	 width="100%" viewBox="0 0 500 500" enable-background="new 0 0 500 500" xml:space="preserve">
<path fill="#000000" opacity="1.000000" stroke="none" 
	d="
M331.000000,501.000000 
	C220.666687,501.000000 110.833389,501.000000 1.000059,501.000000 
	C1.000039,334.333405 1.000039,167.666794 1.000020,1.000148 
	C167.666565,1.000099 334.333130,1.000099 500.999756,1.000049 
	C500.999847,167.666519 500.999847,334.333038 500.999939,500.999786 
	C444.500000,501.000000 388.000000,501.000000 331.000000,501.000000 
M382.726074,343.271790 
	C388.013000,346.996307 393.688293,347.344879 399.593140,345.083984 
	C405.536682,342.808319 407.792816,338.323944 408.112640,332.064545 
	C408.461395,325.239227 406.293579,319.773407 400.091705,317.261627 
	C394.033234,314.807953 387.503448,314.652588 382.030426,319.481659 
	C376.150208,324.670044 375.506317,331.443115 379.137299,340.944946 
	C374.799225,340.038513 372.092346,341.676636 372.058014,345.700348 
	C371.940063,359.526611 371.864288,373.358215 372.209106,387.176880 
	C372.249908,388.812012 374.929993,391.690338 376.491028,391.763489 
	C385.799866,392.199615 395.147186,392.173279 404.460754,391.792145 
	C406.007019,391.728882 407.450745,389.158936 408.941803,387.747314 
	C407.316467,386.177155 405.830841,383.473236 404.039215,383.252441 
	C398.950745,382.625336 393.737335,383.010895 388.573090,383.000671 
	C386.495270,382.996552 384.417480,383.000000 382.003204,383.000000 
	C382.003204,369.123779 382.003204,356.144592 382.726074,343.271790 
M353.221191,217.020844 
	C351.813141,217.849350 350.431091,218.726212 348.993164,219.499130 
	C325.857605,231.935211 300.706970,236.451996 274.880157,237.886185 
	C267.477753,238.297241 259.971130,237.629700 252.562378,236.927856 
	C242.912231,236.013672 233.227402,235.027161 223.709320,233.255844 
	C207.764313,230.288452 191.740280,227.519409 175.623947,230.185074 
	C146.465393,235.007950 125.566040,251.267746 112.217041,278.353668 
	C109.017677,287.506317 107.359947,296.626953 108.815193,306.566864 
	C111.140305,322.448364 119.027130,334.207886 132.747696,341.815033 
	C142.632477,347.295441 153.616959,348.514923 164.954132,347.930939 
	C164.970734,360.741150 165.047379,373.551727 164.968582,386.361359 
	C164.943893,390.376587 166.636307,392.090973 170.647324,392.029877 
	C178.298523,391.913300 185.966278,392.270996 193.600906,391.896576 
	C198.556915,391.653503 203.515839,390.434326 206.158432,385.431122 
	C209.905563,378.336700 209.156647,370.347809 199.755524,365.569672 
	C204.708160,361.123627 206.827835,354.643127 204.545029,349.248749 
	C202.265640,343.862396 197.651413,341.447449 191.975922,341.031036 
	C189.326767,340.836639 186.658905,340.896820 184.318024,340.239532 
	C185.722488,339.444061 187.267639,338.822968 188.507187,337.823059 
	C194.043945,333.356812 195.287750,327.878540 191.678680,321.433197 
	C188.800598,316.293274 181.856049,315.450775 176.177246,319.350098 
	C169.251480,324.105621 161.649582,325.847534 153.393478,324.984467 
	C144.822113,324.088409 136.171997,316.022125 136.280853,308.000183 
	C151.550995,308.000183 166.830765,308.129639 182.106064,307.924866 
	C186.970169,307.859680 191.822357,306.906403 196.943314,306.329865 
	C199.191437,322.176178 208.149475,334.578491 222.397675,343.175690 
	C205.732285,353.426086 205.634552,376.236969 218.446548,387.148743 
	C229.531616,396.589691 249.982849,394.793884 258.066895,382.804932 
	C265.700134,371.484528 265.000885,359.399445 256.703186,346.809540 
	C260.081635,345.872894 263.460083,344.936218 266.953400,344.930725 
	C266.971039,358.898712 266.995605,372.866669 267.001434,386.834656 
	C267.002930,390.353912 268.746704,392.762421 272.175812,392.826294 
	C275.731018,392.892578 277.245667,390.609650 277.061310,386.890656 
	C276.808899,381.799805 276.998230,376.687042 276.998230,371.457458 
	C284.995667,371.457458 292.335907,371.457458 300.013824,371.457458 
	C300.013824,376.721771 299.798279,381.544189 300.086517,386.336334 
	C300.292603,389.762299 301.410583,393.109467 305.833069,392.919037 
	C310.054138,392.737274 310.009399,389.527466 310.013916,386.397217 
	C310.033905,372.597839 310.107635,358.798523 310.959198,345.002594 
	C314.637787,345.723297 318.316406,346.444000 321.684113,347.747803 
	C316.741516,352.220245 314.586761,358.100342 314.070923,364.456909 
	C312.839417,379.632507 324.146027,393.829407 341.847015,393.225494 
	C356.628815,392.721191 367.861755,380.961914 368.020111,367.194427 
	C368.153351,355.610718 362.602722,347.559174 353.180969,341.366089 
	C364.188782,335.646423 372.086792,327.122131 376.183960,315.348450 
	C381.830597,299.122131 380.233429,283.317108 369.911438,269.764435 
	C356.467163,252.112228 337.662598,246.848221 316.239960,251.093399 
	C294.418121,255.417679 276.448669,276.337097 277.792633,299.578735 
	C278.226898,307.088654 279.914764,314.039276 281.382111,320.844849 
	C276.028870,313.965759 270.947723,313.473480 263.285706,317.799042 
	C258.451904,320.527985 252.906509,323.660248 247.660797,323.695374 
	C229.146881,323.819275 220.690643,308.257111 224.912445,290.817535 
	C225.995377,286.344116 228.946640,281.703552 232.342682,278.537567 
	C239.566986,271.802582 251.633469,272.427032 259.246887,277.710449 
	C261.107788,279.001862 263.150116,280.069275 265.204712,281.036469 
	C269.808228,283.203674 276.826111,281.623047 279.560272,277.919952 
	C283.139954,273.071655 283.297699,265.224457 278.991241,261.740326 
	C274.409210,258.033234 269.030945,255.310333 264.908264,252.040436 
	C273.556824,251.022354 282.323578,250.590500 290.831390,248.874466 
	C314.779968,244.044052 336.088043,233.522522 355.088562,217.298477 
	C355.171906,216.951279 355.255249,216.604095 355.338562,216.256897 
	C354.868866,216.476883 354.399139,216.696884 353.221191,217.020844 
M261.172913,222.255371 
	C263.507111,219.332504 266.093445,216.574097 268.127777,213.455597 
	C273.980865,204.483200 279.610931,195.365311 285.704376,186.689575 
	C285.831024,186.816513 285.957672,186.943466 285.991272,187.810043 
	C279.308990,202.455093 272.626709,217.100143 265.935638,231.764435 
	C265.637726,231.671158 266.136841,232.020096 266.510254,231.916412 
	C278.404907,228.614059 290.618042,226.131271 302.097809,221.735321 
	C321.565613,214.280472 335.784760,200.806091 342.631165,180.660706 
	C347.548615,166.191345 348.755585,151.385208 347.243835,136.026154 
	C345.886292,122.233521 342.517731,109.037521 338.872406,95.828667 
	C337.226715,89.865524 335.382690,88.921936 329.253052,90.063789 
	C313.431396,93.011086 300.089539,100.922180 287.677612,110.773743 
	C281.699371,115.518791 280.351562,122.449554 278.272797,130.572388 
	C278.049683,126.624489 277.907623,124.110962 277.682098,120.120079 
	C267.808838,132.813766 255.314056,142.764755 261.503510,160.437057 
	C260.380249,158.612564 259.256989,156.788086 257.684082,154.233276 
	C254.887558,165.437714 255.823944,175.666504 257.435669,185.879990 
	C259.321198,197.828384 264.305756,209.552185 259.391571,222.163818 
	C259.342041,222.606445 259.292480,223.049057 259.242920,223.491684 
	C259.718445,223.226852 260.194000,222.962021 261.172913,222.255371 
M195.796799,179.005890 
	C216.642853,190.292770 238.033493,200.637619 257.320709,215.038574 
	C256.614136,196.986969 253.220871,179.857895 247.921326,163.116013 
	C241.649658,143.303207 231.650452,125.713181 214.529816,113.336998 
	C194.735870,99.028328 172.115616,92.358253 147.833191,92.141670 
	C134.145050,92.019585 120.385269,92.761589 106.768341,94.177666 
	C96.600777,95.235031 86.584930,97.881828 76.570061,100.126625 
	C75.179527,100.438316 73.087173,102.593391 73.178421,103.748260 
	C73.861107,112.389107 74.247307,121.169617 76.188713,129.568359 
	C79.340866,143.204926 86.344414,155.283600 93.620842,167.154022 
	C98.791237,175.588745 106.359497,180.441193 115.713593,182.841492 
	C117.770142,183.369217 119.907082,183.583664 122.007004,183.942368 
	C121.937675,184.382736 121.868355,184.823090 121.799026,185.263458 
	C117.410255,185.263458 113.021484,185.263458 107.705315,185.263458 
	C123.463028,200.512009 136.877274,218.343353 162.328934,210.808929 
	C159.022629,212.390900 155.716339,213.972870 151.329712,216.071747 
	C170.209793,221.558365 187.995377,220.384338 205.903458,218.671432 
	C214.994034,217.801926 224.219345,217.757950 233.349335,218.147293 
	C237.460037,218.322617 241.486603,220.471054 245.551331,221.724228 
	C238.170776,213.871796 230.252518,206.672104 221.874420,200.054596 
	C212.910233,192.974136 203.512695,186.442337 194.689423,179.295471 
	C194.816437,179.168854 194.943436,179.042252 195.796799,179.005890 
z"/>
<path fill="#80CC29" opacity="1.000000" stroke="none" 
	d="
M194.304291,179.671082 
	C203.512695,186.442337 212.910233,192.974136 221.874420,200.054596 
	C230.252518,206.672104 238.170776,213.871796 245.551331,221.724228 
	C241.486603,220.471054 237.460037,218.322617 233.349335,218.147293 
	C224.219345,217.757950 214.994034,217.801926 205.903458,218.671432 
	C187.995377,220.384338 170.209793,221.558365 151.329712,216.071747 
	C155.716339,213.972870 159.022629,212.390900 162.328934,210.808929 
	C136.877274,218.343353 123.463028,200.512009 107.705315,185.263458 
	C113.021484,185.263458 117.410255,185.263458 121.799026,185.263458 
	C121.868355,184.823090 121.937675,184.382736 122.007004,183.942368 
	C119.907082,183.583664 117.770142,183.369217 115.713593,182.841492 
	C106.359497,180.441193 98.791237,175.588745 93.620842,167.154022 
	C86.344414,155.283600 79.340866,143.204926 76.188713,129.568359 
	C74.247307,121.169617 73.861107,112.389107 73.178421,103.748260 
	C73.087173,102.593391 75.179527,100.438316 76.570061,100.126625 
	C86.584930,97.881828 96.600777,95.235031 106.768341,94.177666 
	C120.385269,92.761589 134.145050,92.019585 147.833191,92.141670 
	C172.115616,92.358253 194.735870,99.028328 214.529816,113.336998 
	C231.650452,125.713181 241.649658,143.303207 247.921326,163.116013 
	C253.220871,179.857895 256.614136,196.986969 257.320709,215.038574 
	C238.033493,200.637619 216.642853,190.292770 195.228836,178.633057 
	C193.862396,177.974808 193.063934,177.689377 192.265457,177.403946 
	C192.153748,177.614807 192.042023,177.825668 191.930298,178.036514 
	C192.721634,178.581375 193.512970,179.126221 194.304291,179.671082 
M191.605804,176.254150 
	C191.305069,176.499176 191.004318,176.744202 190.703568,176.989212 
	C191.123337,176.953583 191.543106,176.917938 191.605804,176.254150 
z"/>
<path fill="#F68003" opacity="1.000000" stroke="none" 
	d="
M264.000336,252.157684 
	C269.030945,255.310333 274.409210,258.033234 278.991241,261.740326 
	C283.297699,265.224457 283.139954,273.071655 279.560272,277.919952 
	C276.826111,281.623047 269.808228,283.203674 265.204712,281.036469 
	C263.150116,280.069275 261.107788,279.001862 259.246887,277.710449 
	C251.633469,272.427032 239.566986,271.802582 232.342682,278.537567 
	C228.946640,281.703552 225.995377,286.344116 224.912445,290.817535 
	C220.690643,308.257111 229.146881,323.819275 247.660797,323.695374 
	C252.906509,323.660248 258.451904,320.527985 263.285706,317.799042 
	C270.947723,313.473480 276.028870,313.965759 281.693787,320.911133 
	C282.005463,320.977386 281.936798,320.905548 281.964264,321.271301 
	C282.329132,322.453705 282.666565,323.270386 282.985504,324.060486 
	C282.967041,324.033905 282.930054,323.980865 282.959717,324.395325 
	C283.484802,332.009979 278.788361,336.080627 273.488403,340.018188 
	C271.040649,341.359741 268.939575,342.679657 266.838531,343.999573 
	C263.460083,344.936218 260.081635,345.872894 255.999802,346.905212 
	C245.270020,339.879272 234.362701,339.593933 223.000412,342.839172 
	C208.149475,334.578491 199.191437,322.176178 196.943314,306.329865 
	C191.822357,306.906403 186.970169,307.859680 182.106064,307.924866 
	C166.830765,308.129639 151.550995,308.000183 136.280853,308.000183 
	C136.171997,316.022125 144.822113,324.088409 153.393478,324.984467 
	C161.649582,325.847534 169.251480,324.105621 176.177246,319.350098 
	C181.856049,315.450775 188.800598,316.293274 191.678680,321.433197 
	C195.287750,327.878540 194.043945,333.356812 188.507187,337.823059 
	C187.267639,338.822968 185.722488,339.444061 183.732224,340.602966 
	C178.955841,341.311951 174.768539,341.873840 170.573700,341.937134 
	C166.985382,341.991364 165.017975,343.343658 164.841461,346.999481 
	C153.616959,348.514923 142.632477,347.295441 132.747696,341.815033 
	C119.027130,334.207886 111.140305,322.448364 108.815193,306.566864 
	C107.359947,296.626953 109.017677,287.506317 112.734047,278.442871 
	C114.398285,277.860596 115.757553,277.396606 116.654366,276.480133 
	C119.784042,273.281830 122.488724,269.624939 125.834671,266.689148 
	C135.425568,258.273926 146.027466,251.661789 159.434464,249.907333 
	C180.053238,251.989716 192.317184,263.542023 198.274017,281.905609 
	C201.877533,276.422150 205.160919,270.608734 209.237427,265.418213 
	C215.035172,258.036072 223.446869,254.380310 232.434021,251.104584 
	C243.246384,251.421906 253.623352,251.789795 264.000336,252.157684 
M135.941895,289.224792 
	C136.249695,289.811432 136.553879,290.908783 136.865829,290.911011 
	C149.061493,290.997742 161.257843,290.984680 173.520737,290.984680 
	C172.438812,284.288818 170.601547,278.377167 164.690948,274.977692 
	C152.255615,267.825470 139.659241,273.789398 135.941895,289.224792 
z"/>
<path fill="#80CC29" opacity="1.000000" stroke="none" 
	d="
M285.328613,186.304581 
	C279.610931,195.365311 273.980865,204.483200 268.127777,213.455597 
	C266.093445,216.574097 263.507111,219.332504 260.734222,222.282928 
	C260.169006,222.183395 260.042480,222.056335 259.915955,221.929291 
	C264.305756,209.552185 259.321198,197.828384 257.435669,185.879990 
	C255.823944,175.666504 254.887558,165.437714 257.684082,154.233276 
	C259.256989,156.788086 260.380249,158.612564 261.503510,160.437057 
	C255.314056,142.764755 267.808838,132.813766 277.682098,120.120079 
	C277.907623,124.110962 278.049683,126.624489 278.272797,130.572388 
	C280.351562,122.449554 281.699371,115.518791 287.677612,110.773743 
	C300.089539,100.922180 313.431396,93.011086 329.253052,90.063789 
	C335.382690,88.921936 337.226715,89.865524 338.872406,95.828667 
	C342.517731,109.037521 345.886292,122.233521 347.243835,136.026154 
	C348.755585,151.385208 347.548615,166.191345 342.631165,180.660706 
	C335.784760,200.806091 321.565613,214.280472 302.097809,221.735321 
	C290.618042,226.131271 278.404907,228.614059 266.510254,231.916412 
	C266.136841,232.020096 265.637726,231.671158 265.935638,231.764435 
	C272.626709,217.100143 279.308990,202.455093 286.319580,187.297913 
	C286.750763,186.018524 286.853668,185.251266 287.066406,183.665085 
	C286.171783,185.023895 285.750214,185.664246 285.328613,186.304581 
z"/>
<path fill="#F68003" opacity="1.000000" stroke="none" 
	d="
M321.994995,347.164673 
	C318.316406,346.444000 314.637787,345.723297 310.387390,344.677521 
	C308.257660,340.716919 305.226349,340.696167 301.676514,341.011414 
	C295.921875,335.623016 290.498840,330.374908 285.031677,325.173187 
	C284.465515,324.634521 283.636902,324.371704 282.930054,323.980865 
	C282.930054,323.980865 282.967041,324.033905 283.362457,323.843414 
	C283.150848,322.737122 282.543823,321.821350 281.936798,320.905548 
	C281.936798,320.905548 282.005463,320.977386 282.040894,321.012207 
	C279.914764,314.039276 278.226898,307.088654 277.792633,299.578735 
	C276.448669,276.337097 294.418121,255.417679 316.239960,251.093399 
	C337.662598,246.848221 356.467163,252.112228 369.911438,269.764435 
	C380.233429,283.317108 381.830597,299.122131 376.183960,315.348450 
	C372.086792,327.122131 364.188782,335.646423 352.583984,341.680420 
	C349.398346,341.663177 346.803314,341.374512 344.222198,340.992065 
	C335.892242,339.757935 328.694733,342.553802 321.994995,347.164673 
M351.955383,303.932281 
	C352.758575,292.995056 350.234711,283.594513 340.542908,276.960114 
	C334.753357,272.996948 321.025238,272.989197 315.318115,277.108612 
	C307.386536,282.833618 305.132935,290.526794 304.773163,300.017609 
	C304.316711,312.057983 316.778870,324.938873 330.002625,323.922638 
	C341.818420,323.014648 348.734924,315.985596 351.955383,303.932281 
z"/>
<path fill="#5F9131" opacity="1.000000" stroke="none" 
	d="
M159.010864,249.839401 
	C146.027466,251.661789 135.425568,258.273926 125.834671,266.689148 
	C122.488724,269.624939 119.784042,273.281830 116.654366,276.480133 
	C115.757553,277.396606 114.398285,277.860596 113.053162,278.259003 
	C125.566040,251.267746 146.465393,235.007950 175.623947,230.185074 
	C191.740280,227.519409 207.764313,230.288452 223.709320,233.255844 
	C233.227402,235.027161 242.912231,236.013672 252.562378,236.927856 
	C259.971130,237.629700 267.477753,238.297241 274.880157,237.886185 
	C300.706970,236.451996 325.857605,231.935211 348.993164,219.499130 
	C350.431091,218.726212 351.813141,217.849350 353.765808,217.155487 
	C354.442841,217.408768 354.575226,217.527420 354.707642,217.646088 
	C336.088043,233.522522 314.779968,244.044052 290.831390,248.874466 
	C282.323578,250.590500 273.556824,251.022354 264.454285,252.099060 
	C253.623352,251.789795 243.246384,251.421906 231.993515,251.046814 
	C218.382095,249.649292 205.595840,248.607956 192.925934,246.766190 
	C181.278381,245.073013 170.143799,246.942139 159.010864,249.839401 
z"/>
<path fill="#498536" opacity="1.000000" stroke="none" 
	d="
M164.897797,347.465210 
	C165.017975,343.343658 166.985382,341.991364 170.573700,341.937134 
	C174.768539,341.873840 178.955841,341.311951 183.572968,340.903992 
	C186.658905,340.896820 189.326767,340.836639 191.975922,341.031036 
	C197.651413,341.447449 202.265640,343.862396 204.545029,349.248749 
	C206.827835,354.643127 204.708160,361.123627 199.755524,365.569672 
	C209.156647,370.347809 209.905563,378.336700 206.158432,385.431122 
	C203.515839,390.434326 198.556915,391.653503 193.600906,391.896576 
	C185.966278,392.270996 178.298523,391.913300 170.647324,392.029877 
	C166.636307,392.090973 164.943893,390.376587 164.968582,386.361359 
	C165.047379,373.551727 164.970734,360.741150 164.897797,347.465210 
M191.010010,371.006866 
	C185.788010,371.006866 180.566010,371.006866 175.377823,371.006866 
	C175.377823,375.755371 175.377823,379.636780 175.377823,384.345856 
	C181.154083,383.922791 186.513931,383.550537 191.870071,383.130829 
	C195.437546,382.851227 197.711639,381.142853 197.986496,377.349884 
	C198.302841,372.984222 195.316757,371.796997 191.010010,371.006866 
M195.323929,354.898071 
	C192.252090,349.649506 185.302551,348.212158 175.358017,350.812164 
	C175.358017,354.354401 175.358017,357.916809 175.358017,361.998352 
	C179.490082,361.998352 183.279480,361.923431 187.064697,362.017578 
	C191.663422,362.131958 194.678741,360.291412 195.323929,354.898071 
z"/>
<path fill="#498536" opacity="1.000000" stroke="none" 
	d="
M222.699036,343.007446 
	C234.362701,339.593933 245.270020,339.879272 255.650528,347.082947 
	C265.000885,359.399445 265.700134,371.484528 258.066895,382.804932 
	C249.982849,394.793884 229.531616,396.589691 218.446548,387.148743 
	C205.634552,376.236969 205.732285,353.426086 222.699036,343.007446 
M239.766830,349.362701 
	C228.599838,347.960144 222.443741,353.995575 220.202072,362.085693 
	C217.809280,370.721161 222.562256,379.888306 230.401978,382.972412 
	C238.965530,386.341278 248.822128,381.630554 251.965057,372.666870 
	C255.337845,363.047638 250.171173,352.781403 239.766830,349.362701 
z"/>
<path fill="#498536" opacity="1.000000" stroke="none" 
	d="
M321.839539,347.456238 
	C328.694733,342.553802 335.892242,339.757935 344.222198,340.992065 
	C346.803314,341.374512 349.398346,341.663177 352.411255,341.995148 
	C362.602722,347.559174 368.153351,355.610718 368.020111,367.194427 
	C367.861755,380.961914 356.628815,392.721191 341.847015,393.225494 
	C324.146027,393.829407 312.839417,379.632507 314.070923,364.456909 
	C314.586761,358.100342 316.741516,352.220245 321.839539,347.456238 
M355.940460,358.838257 
	C351.295593,350.459290 343.663696,347.095367 335.800415,349.961151 
	C328.299164,352.695007 322.826752,361.640991 324.352509,368.675659 
	C326.535004,378.738342 333.092957,384.193512 342.016815,384.058044 
	C351.096069,383.920258 361.936493,371.790253 355.940460,358.838257 
z"/>
<path fill="#498536" opacity="1.000000" stroke="none" 
	d="
M301.995514,341.164948 
	C305.226349,340.696167 308.257660,340.716919 309.988708,344.675842 
	C310.107635,358.798523 310.033905,372.597839 310.013916,386.397217 
	C310.009399,389.527466 310.054138,392.737274 305.833069,392.919037 
	C301.410583,393.109467 300.292603,389.762299 300.086517,386.336334 
	C299.798279,381.544189 300.013824,376.721771 300.013824,371.457458 
	C292.335907,371.457458 284.995667,371.457458 276.998230,371.457458 
	C276.998230,376.687042 276.808899,381.799805 277.061310,386.890656 
	C277.245667,390.609650 275.731018,392.892578 272.175812,392.826294 
	C268.746704,392.762421 267.002930,390.353912 267.001434,386.834656 
	C266.995605,372.866669 266.971039,358.898712 266.895966,344.465149 
	C268.939575,342.679657 271.040649,341.359741 273.712738,340.326202 
	C275.188660,342.746948 276.697662,344.832397 276.875244,347.025696 
	C277.270111,351.902710 276.998413,356.833710 276.998413,361.555603 
	C285.194733,361.555603 292.426605,361.555603 300.000000,361.555603 
	C300.000000,358.632111 299.770569,356.124695 300.051117,353.675690 
	C300.531036,349.486176 301.330322,345.333252 301.995514,341.164948 
z"/>
<path fill="#F68003" opacity="1.000000" stroke="none" 
	d="
M379.834717,340.996429 
	C375.506317,331.443115 376.150208,324.670044 382.030426,319.481659 
	C387.503448,314.652588 394.033234,314.807953 400.091705,317.261627 
	C406.293579,319.773407 408.461395,325.239227 408.112640,332.064545 
	C407.792816,338.323944 405.536682,342.808319 399.593140,345.083984 
	C393.688293,347.344879 388.013000,346.996307 382.086304,343.076019 
	C380.909241,342.252319 380.371979,341.624359 379.834717,340.996429 
z"/>
<path fill="#498536" opacity="1.000000" stroke="none" 
	d="
M379.486023,340.970703 
	C380.371979,341.624359 380.909241,342.252319 381.724854,343.022827 
	C382.003204,356.144592 382.003204,369.123779 382.003204,383.000000 
	C384.417480,383.000000 386.495270,382.996552 388.573090,383.000671 
	C393.737335,383.010895 398.950745,382.625336 404.039215,383.252441 
	C405.830841,383.473236 407.316467,386.177155 408.941833,387.747314 
	C407.450745,389.158936 406.007019,391.728882 404.460754,391.792145 
	C395.147186,392.173279 385.799866,392.199615 376.491028,391.763489 
	C374.929993,391.690338 372.249908,388.812012 372.209106,387.176880 
	C371.864288,373.358215 371.940063,359.526611 372.058014,345.700348 
	C372.092346,341.676636 374.799225,340.038513 379.486023,340.970703 
z"/>
<path fill="#80CC29" opacity="1.000000" stroke="none" 
	d="
M260.482544,222.503830 
	C260.194000,222.962021 259.718445,223.226852 259.242920,223.491669 
	C259.292480,223.049057 259.342041,222.606445 259.653748,222.046555 
	C260.042480,222.056335 260.169006,222.183395 260.482544,222.503830 
z"/>
<path fill="#5F9131" opacity="1.000000" stroke="none" 
	d="
M354.119934,217.103485 
	C354.399139,216.696884 354.868866,216.476883 355.338562,216.256897 
	C355.255249,216.604095 355.171906,216.951279 354.898102,217.472290 
	C354.575226,217.527420 354.442841,217.408768 354.119934,217.103485 
z"/>
<path fill="#000000" opacity="1.000000" stroke="none" 
	d="
M194.496857,179.483276 
	C193.512970,179.126221 192.721634,178.581375 191.930298,178.036514 
	C192.042023,177.825668 192.153748,177.614807 192.265457,177.403946 
	C193.063934,177.689377 193.862396,177.974808 194.865646,178.587952 
	C194.943436,179.042252 194.816437,179.168854 194.496857,179.483276 
z"/>
<path fill="#000000" opacity="1.000000" stroke="none" 
	d="
M191.784332,176.568237 
	C191.543106,176.917938 191.123337,176.953583 190.703568,176.989212 
	C191.004318,176.744202 191.305069,176.499176 191.784332,176.568237 
z"/>
<path fill="#000000" opacity="1.000000" stroke="none" 
	d="
M159.434464,249.907333 
	C170.143799,246.942139 181.278381,245.073013 192.925934,246.766190 
	C205.595840,248.607956 218.382095,249.649292 231.558136,251.097382 
	C223.446869,254.380310 215.035172,258.036072 209.237427,265.418213 
	C205.160919,270.608734 201.877533,276.422150 198.274017,281.905609 
	C192.317184,263.542023 180.053238,251.989716 159.434464,249.907333 
z"/>
<path fill="#000000" opacity="1.000000" stroke="none" 
	d="
M301.676514,341.011414 
	C301.330322,345.333252 300.531036,349.486176 300.051117,353.675690 
	C299.770569,356.124695 300.000000,358.632111 300.000000,361.555603 
	C292.426605,361.555603 285.194733,361.555603 276.998413,361.555603 
	C276.998413,356.833710 277.270111,351.902710 276.875244,347.025696 
	C276.697662,344.832397 275.188660,342.746948 274.059448,340.304504 
	C278.788361,336.080627 283.484802,332.009979 282.959717,324.395325 
	C283.636902,324.371704 284.465515,324.634521 285.031677,325.173187 
	C290.498840,330.374908 295.921875,335.623016 301.676514,341.011414 
z"/>
<path fill="#000000" opacity="1.000000" stroke="none" 
	d="
M135.967194,288.822021 
	C139.659241,273.789398 152.255615,267.825470 164.690948,274.977692 
	C170.601547,278.377167 172.438812,284.288818 173.520737,290.984680 
	C161.257843,290.984680 149.061493,290.997742 136.865829,290.911011 
	C136.553879,290.908783 136.249695,289.811432 135.967194,288.822021 
z"/>
<path fill="#000000" opacity="1.000000" stroke="none" 
	d="
M281.964264,321.271301 
	C282.543823,321.821350 283.150848,322.737122 283.380920,323.869995 
	C282.666565,323.270386 282.329132,322.453705 281.964264,321.271301 
z"/>
<path fill="#000000" opacity="1.000000" stroke="none" 
	d="
M285.516479,186.497070 
	C285.750214,185.664246 286.171783,185.023895 287.066406,183.665085 
	C286.853668,185.251266 286.750763,186.018524 286.366089,186.928101 
	C285.957672,186.943466 285.831024,186.816513 285.516479,186.497070 
z"/>
<path fill="#000000" opacity="1.000000" stroke="none" 
	d="
M351.831055,304.349945 
	C348.734924,315.985596 341.818420,323.014648 330.002625,323.922638 
	C316.778870,324.938873 304.316711,312.057983 304.773163,300.017609 
	C305.132935,290.526794 307.386536,282.833618 315.318115,277.108612 
	C321.025238,272.989197 334.753357,272.996948 340.542908,276.960114 
	C350.234711,283.594513 352.758575,292.995056 351.831055,304.349945 
z"/>
<path fill="#000000" opacity="1.000000" stroke="none" 
	d="
M191.454575,371.015991 
	C195.316757,371.796997 198.302841,372.984222 197.986496,377.349884 
	C197.711639,381.142853 195.437546,382.851227 191.870071,383.130829 
	C186.513931,383.550537 181.154083,383.922791 175.377823,384.345856 
	C175.377823,379.636780 175.377823,375.755371 175.377823,371.006866 
	C180.566010,371.006866 185.788010,371.006866 191.454575,371.015991 
z"/>
<path fill="#000000" opacity="1.000000" stroke="none" 
	d="
M195.452881,355.240601 
	C194.678741,360.291412 191.663422,362.131958 187.064697,362.017578 
	C183.279480,361.923431 179.490082,361.998352 175.358017,361.998352 
	C175.358017,357.916809 175.358017,354.354401 175.358017,350.812164 
	C185.302551,348.212158 192.252090,349.649506 195.452881,355.240601 
z"/>
<path fill="#000000" opacity="1.000000" stroke="none" 
	d="
M240.110611,349.578888 
	C250.171173,352.781403 255.337845,363.047638 251.965057,372.666870 
	C248.822128,381.630554 238.965530,386.341278 230.401978,382.972412 
	C222.562256,379.888306 217.809280,370.721161 220.202072,362.085693 
	C222.443741,353.995575 228.599838,347.960144 240.110611,349.578888 
z"/>
<path fill="#000000" opacity="1.000000" stroke="none" 
	d="
M356.062500,359.206238 
	C361.936493,371.790253 351.096069,383.920258 342.016815,384.058044 
	C333.092957,384.193512 326.535004,378.738342 324.352509,368.675659 
	C322.826752,361.640991 328.299164,352.695007 335.800415,349.961151 
	C343.663696,347.095367 351.295593,350.459290 356.062500,359.206238 
z"/>
</svg>